<?xml version="1.0" encoding="UTF-8"?>
<svg version="1.1" xmlns="http://www.w3.org/2000/svg" width="1140" height="900">
<path d="M0 0 C0.66 0.33 1.32 0.66 2 1 C-7.9 111.88 -17.8 222.76 -28 337 C20.51 337 69.02 337 119 337 C117.51082821 340.72292947 116.70960386 342.6724254 114.3828125 345.609375 C113.86468994 346.27243652 113.34656738 346.93549805 112.81274414 347.61865234 C112.25578857 348.32199707 111.69883301 349.0253418 111.125 349.75 C106.62420935 355.53004159 102.25234427 361.3655743 98.0625 367.375 C93.24167688 374.2789047 88.29159126 381.07568159 83.28149414 387.84326172 C79.31686214 393.20240306 75.39336566 398.58889167 71.5 404 C66.46006391 411.00225341 61.35786473 417.95613449 56.23046875 424.89453125 C52.28584489 430.23857821 48.38041885 435.60918549 44.5 441 C37.15996467 451.19356463 29.69545394 461.29401627 22.22949219 471.39550781 C15.40034581 480.63804661 8.6079307 489.9038828 1.89428711 499.23071289 C-2.61431413 505.4862521 -7.18680605 511.69318346 -11.76953125 517.89453125 C-15.71415404 523.23857676 -19.61969056 528.60910781 -23.5 534 C-28.54007819 541.00215242 -33.64213385 547.95613256 -38.76953125 554.89453125 C-42.71415404 560.23857676 -46.61969056 565.60910781 -50.5 571 C-55.54007819 578.00215242 -60.64213385 584.95613256 -65.76953125 591.89453125 C-69.71415404 597.23857676 -73.61969056 602.60910781 -77.5 608 C-82.54007819 615.00215242 -87.64213385 621.95613256 -92.76953125 628.89453125 C-96.71415404 634.23857676 -100.61969056 639.60910781 -104.5 645 C-109.54007819 652.00215242 -114.64213385 658.95613256 -119.76953125 665.89453125 C-123.71415404 671.23857676 -127.61969056 676.60910781 -131.5 682 C-136.54007819 689.00215242 -141.64213385 695.95613256 -146.76953125 702.89453125 C-150.71415511 708.23857821 -154.61958115 713.60918549 -158.5 719 C-165.84003533 729.19356463 -173.30454606 739.29401627 -180.77050781 749.39550781 C-187.59965419 758.63804661 -194.3920693 767.9038828 -201.10571289 777.23071289 C-205.61431413 783.4862521 -210.18680605 789.69318346 -214.76953125 795.89453125 C-218.71415404 801.23857676 -222.61969056 806.60910781 -226.5 812 C-231.54007819 819.00215242 -236.64213385 825.95613256 -241.76953125 832.89453125 C-245.71415511 838.23857821 -249.61958115 843.60918549 -253.5 849 C-259.66491876 857.561607 -265.9156161 866.05807905 -272.18554688 874.54296875 C-275.95272413 879.64427014 -279.7105894 884.75244232 -283.47045898 889.85913086 C-284.02032471 890.60557861 -284.57019043 891.35202637 -285.13671875 892.12109375 C-285.61842529 892.7752124 -286.10013184 893.42933105 -286.59643555 894.10327148 C-288.05574822 896.07533622 -289.52598151 898.0389098 -291 900 C-294.31600246 898.89466585 -294.72377495 898.3751416 -296.64453125 895.6328125 C-297.14919922 894.92189453 -297.65386719 894.21097656 -298.17382812 893.47851562 C-298.71458984 892.70185547 -299.25535156 891.92519531 -299.8125 891.125 C-300.98470632 889.47066589 -302.15791614 887.81704245 -303.33203125 886.1640625 C-303.93740723 885.30844727 -304.5427832 884.45283203 -305.16650391 883.57128906 C-308.06174111 879.51101765 -311.03077813 875.50631055 -314 871.5 C-319.08309208 864.62374306 -324.11003785 857.70965545 -329.10546875 850.76953125 C-333.03392016 845.31916162 -337.00705268 839.90325984 -341 834.5 C-346.08205078 827.6229644 -351.11002797 820.70966917 -356.10546875 813.76953125 C-360.03392016 808.31916162 -364.00705268 802.90325984 -368 797.5 C-372.53751011 791.35983731 -377.03966576 785.19645339 -381.5 779 C-388.25983749 769.61219227 -395.12417344 760.30303505 -402 751 C-409.42059673 740.9598876 -416.81196039 730.90202492 -424.10571289 720.76928711 C-428.0339888 715.31893063 -432.00712036 709.90316826 -436 704.5 C-441.08205078 697.6229644 -446.11002797 690.70966917 -451.10546875 683.76953125 C-455.03392016 678.31916162 -459.00705268 672.90325984 -463 667.5 C-468.08205078 660.6229644 -473.11002797 653.70966917 -478.10546875 646.76953125 C-482.03392016 641.31916162 -486.00705268 635.90325984 -490 630.5 C-495.08205078 623.6229644 -500.11002797 616.70966917 -505.10546875 609.76953125 C-509.03392016 604.31916162 -513.00705268 598.90325984 -517 593.5 C-522.08205078 586.6229644 -527.11002797 579.70966917 -532.10546875 572.76953125 C-536.03392016 567.31916162 -540.00705268 561.90325984 -544 556.5 C-549.08205078 549.6229644 -554.11002797 542.70966917 -559.10546875 535.76953125 C-563.03392016 530.31916162 -567.00705268 524.90325984 -571 519.5 C-576.08205078 512.6229644 -581.11002797 505.70966917 -586.10546875 498.76953125 C-590.03392016 493.31916162 -594.00705268 487.90325984 -598 482.5 C-602.53751011 476.35983731 -607.03966576 470.19645339 -611.5 464 C-618.25983749 454.61219227 -625.12417344 445.30303505 -632 436 C-639.42059673 425.9598876 -646.81196039 415.90202492 -654.10571289 405.76928711 C-658.0339888 400.31893063 -662.00712036 394.90316826 -666 389.5 C-670.53750927 383.35983846 -675.03975674 377.19651828 -679.5 371 C-690.35859303 355.7659219 -690.35859303 355.7659219 -701.68115234 340.88037109 C-703 339 -703 339 -703 337 C-671.44934913 336.68042015 -639.89915987 336.43276264 -608.34726799 336.28508539 C-604.61985569 336.26757611 -600.89244658 336.24945554 -597.16503906 336.23095703 C-596.42299909 336.22728469 -595.68095911 336.22361234 -594.91643308 336.21982871 C-582.9111161 336.15895771 -570.90674045 336.04860275 -558.90198137 335.91986085 C-546.57807661 335.78880158 -534.2546638 335.71114902 -521.93009079 335.68276107 C-514.32836715 335.66357741 -506.72930407 335.60306939 -499.12839989 335.48916946 C-493.29369573 335.40620583 -487.46034655 335.39766004 -481.62503624 335.41649246 C-479.23603522 335.41264628 -476.84693192 335.38486434 -474.45853233 335.33112335 C-456.86605577 334.95475312 -456.86605577 334.95475312 -452.07812071 338.37147284 C-448.42409946 342.09425909 -446.26249326 346.3459894 -444 351 C-442.84470463 352.65786993 -441.65926678 354.29612844 -440.41796875 355.890625 C-439.88558594 356.60992187 -439.35320312 357.32921875 -438.8046875 358.0703125 C-438.27101563 358.78960937 -437.73734375 359.50890625 -437.1875 360.25 C-432.58608051 366.47248851 -428.0205789 372.71854207 -423.5 379 C-419.03984573 385.19658129 -414.53750831 391.35983975 -410 397.5 C-405.46248989 403.64016269 -400.96033424 409.80354661 -396.5 416 C-389.74016251 425.38780773 -382.87582656 434.69696495 -376 444 C-368.57940327 454.0401124 -361.18803961 464.09797508 -353.89428711 474.23071289 C-349.9660112 479.68106937 -345.99287964 485.09683174 -342 490.5 C-336.91794922 497.3770356 -331.88997203 504.29033083 -326.89453125 511.23046875 C-322.96607919 516.68083928 -318.99288487 522.09669311 -315 527.5 C-310.21574128 533.97550088 -305.46408655 540.47320977 -300.75 547 C-299.92628906 548.13985352 -299.92628906 548.13985352 -299.0859375 549.30273438 C-297.01312737 552.17783777 -294.96645415 555.05031877 -293 558 C-288.67894263 556.55964754 -287.14188164 553.2532512 -284.6875 549.625 C-283.60726107 548.06126034 -282.5251591 546.49880639 -281.44140625 544.9375 C-280.59473389 543.71546875 -280.59473389 543.71546875 -279.73095703 542.46875 C-276.92853277 538.47183686 -274.03029441 534.54747334 -271.125 530.625 C-270.54137695 529.83569092 -269.95775391 529.04638184 -269.35644531 528.2331543 C-268.16707722 526.62555224 -266.97713449 525.01837517 -265.78662109 523.41162109 C-262.8322227 519.4237081 -259.88367315 515.43149245 -256.9375 511.4375 C-256.35758301 510.65133301 -255.77766602 509.86516602 -255.18017578 509.05517578 C-250.71200587 502.98810806 -246.29617312 496.88454216 -241.89428711 490.76928711 C-237.38568587 484.5137479 -232.81319395 478.30681654 -228.23046875 472.10546875 C-223.7461175 466.03021683 -219.31796233 459.91628496 -214.90771484 453.78710938 C-210.30021178 447.39302349 -205.62908069 441.04701989 -200.93164062 434.71875 C-196.85171471 429.20769668 -192.93620914 423.62315591 -189 418 C-220.35 417.67 -251.7 417.34 -284 417 C-282.33710801 412.84277002 -280.99205764 410.39331105 -278.3671875 406.92578125 C-274.07407656 401.14450803 -270.08440556 395.20036198 -266.125 389.1875 C-261.84260236 382.72060724 -257.55584755 376.27780349 -253 370 C-248.53391441 363.84221532 -244.32618438 357.52846673 -240.125 351.1875 C-235.05995651 343.54286188 -229.91795017 335.97729973 -224.58300781 328.51904297 C-219.47877326 321.34389844 -214.64419454 313.99212384 -209.78125 306.65234375 C-205.54229607 300.26955106 -201.18673676 294.01415067 -196.6875 287.8125 C-192.25326773 281.60457483 -188.11341978 275.18978939 -183.90039062 268.83105469 C-179.80711079 262.6678114 -175.63779004 256.58222809 -171.2980957 250.59057617 C-168.162373 246.25631056 -165.19009724 241.83048859 -162.2421875 237.3671875 C-159.47623529 233.19404117 -156.64255479 229.0673207 -153.8125 224.9375 C-153.25715576 224.12708252 -152.70181152 223.31666504 -152.12963867 222.48168945 C-150.98846113 220.81693397 -149.84710204 219.15230292 -148.70556641 217.48779297 C-145.96743823 213.49387283 -143.23387128 209.49683465 -140.5 205.5 C-137.27408283 200.78471426 -134.04784343 196.06965008 -130.8203125 191.35546875 C-125.03843034 182.90938599 -119.26446153 174.45798358 -113.5 166 C-107.20820063 156.76827289 -100.90408356 147.54505681 -94.59277344 138.32666016 C-91.89439623 134.38497795 -89.19726826 130.4424411 -86.5 126.5 C-85.4166725 124.91666268 -84.33333917 123.33332934 -83.25 121.75 C-82.71375 120.96625 -82.1775 120.1825 -81.625 119.375 C-76.75 112.25 -76.75 112.25 -75.12548828 109.87573242 C-74.04050401 108.28997365 -72.95554313 106.70419887 -71.87060547 105.1184082 C-69.18772155 101.19705358 -66.50445193 97.2759641 -63.8203125 93.35546875 C-58.03843034 84.90938599 -52.26446153 76.45798358 -46.5 68 C-40.20820063 58.76827289 -33.90408356 49.54505681 -27.59277344 40.32666016 C-24.89439624 36.38497795 -22.197268 32.44244127 -19.5 28.5 C-18.43359959 26.94140225 -17.36719333 25.38280851 -16.30078125 23.82421875 C-15.76662598 23.04353027 -15.2324707 22.2628418 -14.68212891 21.45849609 C-9.78808594 14.30566406 -4.89404297 7.15283203 0 0 Z " fill="#00F0FF" transform="translate(1015,0)"/>
<path d="M0 0 C31.49941491 -0.41111346 62.99806305 -0.72941826 94.49953602 -0.91917593 C98.22308376 -0.94168718 101.9466262 -0.96498512 105.67016602 -0.98876953 C106.41141906 -0.99349112 107.1526721 -0.99821271 107.91638736 -1.00307737 C119.90060775 -1.08128754 131.88326534 -1.22314041 143.86656024 -1.38875033 C156.17349043 -1.55740736 168.47960542 -1.65712508 180.78764373 -1.69359291 C188.37630539 -1.71822856 195.96055014 -1.79584483 203.54785071 -1.9424964 C209.37778401 -2.04940245 215.20492332 -2.0601156 221.03564072 -2.03593826 C223.41865333 -2.04087266 225.80183977 -2.07645393 228.18385124 -2.14569855 C245.70741377 -2.62992746 245.70741377 -2.62992746 251.22793221 1.7795434 C255.19273663 6.04968966 258.12657635 10.7937759 260.85976279 15.91798234 C262.30481295 18.55657361 264.03047631 20.90919746 265.875 23.28125 C266.39771484 23.98765625 266.92042969 24.6940625 267.45898438 25.421875 C267.96751953 26.10765625 268.47605469 26.7934375 269 27.5 C274.08315848 34.37620991 279.11003778 41.29034445 284.10546875 48.23046875 C288.03392016 53.68083838 292.00705268 59.09674016 296 64.5 C300.53751011 70.64016269 305.03966576 76.80354661 309.5 83 C316.25983749 92.38780773 323.12417344 101.69696495 330 111 C337.42059673 121.0401124 344.81196039 131.09797508 352.10571289 141.23071289 C356.0339888 146.68106937 360.00712036 152.09683174 364 157.5 C369.08205078 164.3770356 374.11002797 171.29033083 379.10546875 178.23046875 C383.03392016 183.68083838 387.00705268 189.09674016 391 194.5 C396.08205078 201.3770356 401.11002797 208.29033083 406.10546875 215.23046875 C410.03392016 220.68083838 414.00705268 226.09674016 418 231.5 C423.08205078 238.3770356 428.11002797 245.29033083 433.10546875 252.23046875 C437.03392016 257.68083838 441.00705268 263.09674016 445 268.5 C450.08205078 275.3770356 455.11002797 282.29033083 460.10546875 289.23046875 C464.03392016 294.68083838 468.00705268 300.09674016 472 305.5 C477.08205078 312.3770356 482.11002797 319.29033083 487.10546875 326.23046875 C491.03392016 331.68083838 495.00705268 337.09674016 499 342.5 C504.0739497 349.36607322 509.09474441 356.26776199 514.08129883 363.19750977 C518.83992618 369.80100688 523.66500386 376.35453579 528.5078125 382.89648438 C529.06597656 383.65123047 529.62414062 384.40597656 530.19921875 385.18359375 C530.69252686 385.84931396 531.18583496 386.51503418 531.6940918 387.20092773 C535.010781 391.7701337 535.010781 391.7701337 534.890625 394.33203125 C533.75163028 397.74401981 532.01625814 399.89122987 529.75 402.6875 C528.83079784 403.8430397 527.91426989 405.00071018 527 406.16015625 C526.26716797 407.08852295 526.26716797 407.08852295 525.51953125 408.03564453 C522.83963978 411.5000415 520.29977979 415.06435391 517.75 418.625 C513.20987641 424.94931958 508.62852192 431.24007172 504 437.5 C499.46231614 443.64002998 494.9602068 449.80345965 490.5 456 C485.45992181 463.00215242 480.35786615 469.95613256 475.23046875 476.89453125 C471.28584596 482.23857676 467.38030944 487.60910781 463.5 493 C458.45992181 500.00215242 453.35786615 506.95613256 448.23046875 513.89453125 C444.28584454 519.23857868 440.38044926 524.60920685 436.5 530 C431.84611201 536.46241968 427.1579009 542.89848247 422.4375 549.3125 C421.85355469 550.10720703 421.26960938 550.90191406 420.66796875 551.72070312 C417.85024668 555.54240327 415.00362304 559.32074537 412 563 C408.96017053 561.68472791 407.32830328 560.49276535 405.4765625 557.75390625 C405.02031494 557.09140869 404.56406738 556.42891113 404.09399414 555.74633789 C403.60922607 555.02567139 403.12445801 554.30500488 402.625 553.5625 C401.55525882 552.00912487 400.48356928 550.45709008 399.41015625 548.90625 C398.85215332 548.09800781 398.29415039 547.28976562 397.71923828 546.45703125 C394.9069884 542.437934 391.98587658 538.50112989 389.0625 534.5625 C384.50145844 528.40327849 379.97633467 522.22106926 375.5 516 C368.740353 506.61205769 361.87582434 497.30303204 355 488 C347.57940327 477.9598876 340.18803961 467.90202492 332.89428711 457.76928711 C328.9660112 452.31893063 324.99287964 446.90316826 321 441.5 C315.91794922 434.6229644 310.88997203 427.70966917 305.89453125 420.76953125 C301.96607984 415.31916162 297.99294732 409.90325984 294 404.5 C288.91794922 397.6229644 283.88997203 390.70966917 278.89453125 383.76953125 C274.96607984 378.31916162 270.99294732 372.90325984 267 367.5 C261.91794922 360.6229644 256.88997203 353.70966917 251.89453125 346.76953125 C247.96607984 341.31916162 243.99294732 335.90325984 240 330.5 C235.46248989 324.35983731 230.96033424 318.19645339 226.5 312 C219.74016251 302.61219227 212.87582656 293.30303505 206 284 C198.57940327 273.9598876 191.18803961 263.90202492 183.89428711 253.76928711 C179.9660112 248.31893063 175.99287964 242.90316826 172 237.5 C166.91794922 230.6229644 161.88997203 223.70966917 156.89453125 216.76953125 C152.96607984 211.31916162 148.99294732 205.90325984 145 200.5 C139.91794922 193.6229644 134.88997203 186.70966917 129.89453125 179.76953125 C125.96607984 174.31916162 121.99294732 168.90325984 118 163.5 C112.91794922 156.6229644 107.88997203 149.70966917 102.89453125 142.76953125 C98.96607984 137.31916162 94.99294732 131.90325984 91 126.5 C85.91794922 119.6229644 80.88997203 112.70966917 75.89453125 105.76953125 C71.96607984 100.31916162 67.99294732 94.90325984 64 89.5 C59.46248989 83.35983731 54.96033424 77.19645339 50.5 71 C43.74016251 61.61219227 36.87582656 52.30303505 30 43 C22.3377764 32.63296498 14.70324314 22.24881652 7.17358398 11.78491211 C6.66899658 11.08374268 6.16440918 10.38257324 5.64453125 9.66015625 C5.18127441 9.01449707 4.71801758 8.36883789 4.24072266 7.70361328 C3.2343193 6.32173949 2.1908398 4.96692126 1.13671875 3.62109375 C0 2 0 2 0 0 Z " fill="#FFFFFF" transform="translate(6,337)"/>
</svg>
