<?xml version="1.0" encoding="UTF-8"?>
<svg version="1.1" xmlns="http://www.w3.org/2000/svg" width="960" height="330">
<path d="M0 0 C6.85099678 5.27895503 12.54014776 12.65957781 14.09375 21.36328125 C14.20203125 22.42095703 14.20203125 22.42095703 14.3125 23.5 C14.4053125 24.38042969 14.498125 25.26085937 14.59375 26.16796875 C14.98557503 33.58325751 13.2377554 39.29722769 10.5546875 46.1640625 C8.92115347 50.55097463 8.04930986 54.8928211 7.3125 59.5 C7.085625 60.655 6.85875 61.81 6.625 63 C6.07848585 65.49422187 6.07848585 65.49422187 7.3125 67.5 C7.74820313 67.10167969 8.18390625 66.70335937 8.6328125 66.29296875 C9.22835937 65.76316406 9.82390625 65.23335938 10.4375 64.6875 C11.01757812 64.16542969 11.59765625 63.64335937 12.1953125 63.10546875 C14.3125 61.5 14.3125 61.5 17.4296875 60.2734375 C20.63967183 58.71046943 20.63967183 58.71046943 21.5625 55.05859375 C21.83141619 53.6884733 22.08053621 52.3143583 22.3125 50.9375 C24.71301304 39.58823093 29.56890416 31.19965472 39.3125 24.5 C54.66969352 16.35509169 72.50856404 15.30164336 89.26953125 19.390625 C93.88886296 21.07469458 97.42252112 23.49908838 100.3125 27.5 C102.50710851 32.46140867 102.64723006 37.0486774 102.625 42.375 C102.64111328 43.13941406 102.65722656 43.90382812 102.67382812 44.69140625 C102.67447266 45.45066406 102.67511719 46.20992187 102.67578125 46.9921875 C102.67876221 47.66620605 102.68174316 48.34022461 102.68481445 49.03466797 C102.127583 52.7244537 100.70639571 56.05246236 99.3125 59.5 C100.39668213 59.51458252 101.48086426 59.52916504 102.59790039 59.54418945 C106.64428664 59.60243472 110.69013159 59.6796647 114.73608398 59.76245117 C116.48273899 59.79557767 118.22949788 59.82364737 119.97631836 59.84643555 C122.4963787 59.88020881 125.01549752 59.93253347 127.53515625 59.98828125 C128.30835709 59.99467117 129.08155792 60.0010611 129.87818909 60.00764465 C136.33763727 60.18037174 141.13631952 61.47564607 146 66 C152.23715084 74.38370275 154.19885216 86.43470231 157.140625 96.31640625 C157.3665332 97.07381104 157.59244141 97.83121582 157.82519531 98.61157227 C158.3125 100.5 158.3125 100.5 158.3125 102.5 C160.64249059 101.62637944 160.64249059 101.62637944 161.30224609 98.63598633 C161.81392334 96.75302856 161.81392334 96.75302856 162.3359375 94.83203125 C162.72123893 93.44983766 163.10665949 92.06767728 163.4921875 90.68554688 C164.09000126 88.50538564 164.68429624 86.32432651 165.27539062 84.14233398 C165.84896566 82.03626813 166.43564444 79.93416592 167.0234375 77.83203125 C167.36681152 76.57108643 167.71018555 75.3101416 168.06396484 74.01098633 C169.96833529 68.65573578 172.00529861 64.95106405 177.03466797 62.15600586 C181.31336534 60.24727376 185.12024274 59.93227797 189.7578125 60.00390625 C190.5313205 60.00245102 191.30482849 60.00099579 192.10177612 59.99949646 C193.72365111 60.00114444 195.34554356 60.01258105 196.96728516 60.03344727 C199.4385046 60.06251182 201.90758754 60.05401224 204.37890625 60.04101562 C205.963552 60.04725139 207.54819105 60.05564107 209.1328125 60.06640625 C209.86420441 60.06347061 210.59559631 60.06053497 211.34915161 60.05751038 C216.86866509 60.1583214 220.86492047 61.47441694 225.125 65 C227.76564308 68.33554916 227.78054282 72.19959367 227.72412109 76.27294922 C226.78325324 83.64921927 223.71480703 90.63174552 221.125 97.5625 C220.46084908 99.3738695 219.79804453 101.18573312 219.13647461 102.99804688 C217.68141585 106.97491366 216.21601016 110.94778252 214.74414062 114.91845703 C212.34266062 121.40429655 209.9774121 127.903061 207.61495399 134.40319633 C205.7681562 139.48037191 203.9127333 144.55440272 202.05822372 149.62876511 C201.38330061 151.47726602 200.71014809 153.3264131 200.03701782 155.17556763 C191.78885062 177.80076048 191.78885062 177.80076048 186.9296875 188.78125 C186.61979385 189.48185547 186.30990021 190.18246094 185.99061584 190.90429688 C180.62961391 202.68940341 171.4492616 217.93648595 159.3125 223.5 C154.59799878 224.23104873 149.93478126 224.17708721 145.171875 224.12890625 C143.79900932 224.12973593 142.42614375 224.13219905 141.05328369 224.13621521 C138.18853548 224.13906226 135.32457394 224.12447372 132.45996094 224.09692383 C128.78873141 224.06271158 125.11889539 224.06891126 121.4475975 224.0875864 C118.61822882 224.09814919 115.78918495 224.08922773 112.9598465 224.07420158 C110.94848434 224.06650803 108.93708286 224.07387124 106.92572021 224.08143616 C105.70725403 224.06559982 104.48878784 224.04976349 103.23339844 224.03344727 C101.62292633 224.0241494 101.62292633 224.0241494 99.97991943 224.0146637 C97.3125 223.5 97.3125 223.5 95.50494385 221.65415955 C92.74362236 216.66580973 93.0570744 211.8639362 93 206.3125 C92.97099609 205.39146484 92.94199219 204.47042969 92.91210938 203.52148438 C92.85517011 197.35014403 93.58860063 192.55331135 97.3125 187.5 C101.40728437 183.87402815 106.13382625 183.83936562 111.375 183.4375 C112.97065868 183.30805299 114.56576517 183.17156668 116.16015625 183.02734375 C116.86148682 182.97312256 117.56281738 182.91890137 118.28540039 182.86303711 C120.57315995 182.45331791 122.28951692 181.62400561 124.3125 180.5 C124.52086874 175.54959343 124.03894249 171.93389323 122.21484375 167.3359375 C121.74981445 166.14814697 121.28478516 164.96035645 120.80566406 163.73657227 C120.28744125 162.44924786 119.76887739 161.16206071 119.25 159.875 C118.71884785 158.53281811 118.18859384 157.19028049 117.65917969 155.84741211 C115.8960211 151.39055526 114.10544823 146.94493915 112.3125 142.5 C111.63229724 140.81039498 110.95212214 139.12077882 110.27197266 137.43115234 C105.97935063 126.7763284 101.65653846 116.13395587 97.3125 105.5 C95.23770986 105.3730834 95.23770986 105.3730834 93.1875 106.375 C89.61396228 107.77334085 86.04168342 108.59248911 82.3125 109.5 C82.30663376 110.31130875 82.30076752 111.12261749 82.29472351 111.95851135 C82.2366957 119.62364688 82.16456175 127.28846109 82.07678509 134.95330906 C82.03215574 138.89341224 81.99288362 142.83341379 81.96606445 146.77368164 C81.93995673 150.57994894 81.89950256 154.3858236 81.84931374 158.19184685 C81.83269526 159.64016759 81.82114982 161.08855616 81.81488609 162.53695869 C81.7361557 179.0763443 81.7361557 179.0763443 76 184.8125 C68.97363313 189.22440478 61.68366821 188.84001031 53.68237305 188.81567383 C51.51624744 188.81252363 49.35150316 188.83597371 47.18554688 188.86132812 C30.37633472 188.93862938 30.37633472 188.93862938 23.875 183.4375 C19.43497198 175.09024733 19.97997616 165.16968771 19.8984375 155.9609375 C19.87968521 154.58516329 19.86010893 153.20940009 19.8397522 151.83364868 C19.78885301 148.24666902 19.7490042 144.65965223 19.71160889 141.07250977 C19.67130142 137.39851013 19.62033242 133.72465922 19.5703125 130.05078125 C19.4740545 122.86729026 19.38949281 115.68372609 19.3125 108.5 C18.74660156 108.22285156 18.18070313 107.94570312 17.59765625 107.66015625 C16.86417969 107.29792969 16.13070312 106.93570313 15.375 106.5625 C14.64410156 106.20285156 13.91320312 105.84320313 13.16015625 105.47265625 C11.3125 104.5 11.3125 104.5 10.3125 103.5 C10.30441315 104.31717499 10.29632629 105.13434998 10.28799438 105.97628784 C10.20973933 113.71399964 10.12235802 121.45153119 10.02497292 129.18902397 C9.97523317 133.16602024 9.92890309 137.14299278 9.890625 141.12011719 C9.85348777 144.96521979 9.80705488 148.81011231 9.75443649 152.65503311 C9.73604234 154.11484175 9.72088044 155.57469516 9.70915604 157.0345726 C9.54907413 176.29524064 9.54907413 176.29524064 5.75 183.4375 C-1.42369498 189.5075496 -10.70724565 188.97038488 -19.59887695 188.89111328 C-21.74950322 188.87500372 -23.89825819 188.89104007 -26.04882812 188.91015625 C-41.85837064 188.93613338 -41.85837064 188.93613338 -47.2265625 184.11889648 C-50.9304753 179.99661225 -51.80903812 176.56538354 -51.82121277 171.19377136 C-51.82547775 170.34014511 -51.82974274 169.48651886 -51.83413696 168.60702515 C-51.83368378 167.67862823 -51.83323059 166.75023132 -51.83276367 165.79370117 C-51.83612228 164.80949692 -51.8394809 163.82529266 -51.84294128 162.81126404 C-51.85244596 159.55515279 -51.85439423 156.29909301 -51.85546875 153.04296875 C-51.8586819 150.77858967 -51.86204602 148.5142108 -51.86555481 146.24983215 C-51.87154504 141.50110391 -51.87339484 136.75239386 -51.87280273 132.00366211 C-51.87270117 125.92409875 -51.88634772 119.84465234 -51.90357494 113.76511669 C-51.91470411 109.08705613 -51.91672165 104.40902375 -51.91619301 99.73095131 C-51.91737196 97.48990794 -51.92178894 95.24886381 -51.92952538 93.00783348 C-51.93934264 89.86996699 -51.93644013 86.73235314 -51.93041992 83.59448242 C-51.93603943 82.6721582 -51.94165894 81.74983398 -51.94744873 80.79956055 C-51.92223223 75.61685879 -51.29676904 71.4229912 -49.6875 66.5 C-49.31594109 61.94840333 -50.17979088 58.7718425 -51.6875 54.5 C-52.01610314 53.06609537 -52.32736544 51.6281513 -52.625 50.1875 C-53.26803087 47.08551908 -54.13481699 44.31091398 -55.3125 41.375 C-58.58402482 31.7121973 -57.67893965 21.32452953 -53.28515625 12.21875 C-47.98646773 3.20191085 -41.43039082 -1.73722837 -31.6875 -5.5 C-20.32078508 -8.36790961 -9.6815488 -6.44556046 0 0 Z " fill="#000000" transform="translate(721.6875,106.5)"/>
<path d="M0 0 C1.18376777 2.36753554 1.02051012 3.41006913 0.78530884 6.02102661 C0.67594749 7.28255302 0.67594749 7.28255302 0.56437683 8.56956482 C0.47819595 9.4942305 0.39201508 10.41889618 0.30322266 11.37158203 C0.21719284 12.34413437 0.13116302 13.31668671 0.04252625 14.31871033 C-0.24467075 17.54894158 -0.54023102 20.77834999 -0.8359375 24.0078125 C-1.03722227 26.25019192 -1.23803182 28.49261405 -1.43838501 30.7350769 C-1.86035208 35.44480337 -2.28609599 40.15416728 -2.71484375 44.86328125 C-3.26340276 50.88850904 -3.80577502 56.91427139 -4.34569359 62.94027901 C-4.86125122 68.69213943 -5.37963449 74.44374403 -5.8984375 80.1953125 C-6.04619692 81.83633123 -6.04619692 81.83633123 -6.19694138 83.51050186 C-6.4779086 86.62449259 -6.76084319 89.73829798 -7.04443359 92.85205078 C-7.12656601 93.76457108 -7.20869843 94.67709137 -7.2933197 95.61726379 C-7.37186691 96.47520035 -7.45041412 97.3331369 -7.53134155 98.21707153 C-7.59808767 98.95190828 -7.66483379 99.68674503 -7.73360252 100.44384956 C-8.10095685 103.96870625 -8.56042741 107.4834193 -9 111 C6.84 111 22.68 111 39 111 C37.55220698 114.61948256 36.63472243 116.78240427 34.453125 119.7578125 C33.94523437 120.45583984 33.43734375 121.15386719 32.9140625 121.87304688 C32.36492187 122.61619141 31.81578125 123.35933594 31.25 124.125 C30.67507813 124.91197266 30.10015625 125.69894531 29.5078125 126.50976562 C27.67792059 129.01101398 25.84000369 131.50618296 24 134 C22.82812226 135.59114381 21.65624722 137.18228962 20.484375 138.7734375 C18.73528935 141.14691632 16.98538823 143.51977718 15.23339844 145.89111328 C11.2872951 151.23593227 7.38129329 156.60797068 3.5 162 C-3.84003533 172.19356463 -11.30454606 182.29401627 -18.77050781 192.39550781 C-25.59965419 201.63804661 -32.3920693 210.9038828 -39.10571289 220.23071289 C-43.61431413 226.4862521 -48.18680605 232.69318346 -52.76953125 238.89453125 C-56.71415466 244.2385776 -60.61962828 249.60915197 -64.5 255 C-70.70609596 263.62020862 -77.00403922 272.17084691 -83.31445312 280.71484375 C-86.00843261 284.3671682 -88.69229016 288.02689346 -91.375 291.6875 C-91.84566895 292.32969482 -92.31633789 292.97188965 -92.80126953 293.63354492 C-93.86770038 295.08889268 -94.93388223 296.54442288 -96 298 C-99.91869435 294.40942599 -102.81937795 290.25088415 -105.875 285.9375 C-107.03821367 284.31059068 -108.20230514 282.68430869 -109.3671875 281.05859375 C-109.9662793 280.22183105 -110.56537109 279.38506836 -111.18261719 278.52294922 C-114.0876539 274.49008391 -117.04353487 270.49523431 -120 266.5 C-125.08254156 259.6233311 -130.11003255 252.70966281 -135.10546875 245.76953125 C-139.03392016 240.31916162 -143.00705268 234.90325984 -147 229.5 C-151.53751011 223.35983731 -156.03966576 217.19645339 -160.5 211 C-167.25983749 201.61219227 -174.12417344 192.30303505 -181 183 C-188.41841494 172.96283957 -195.8083061 162.90841316 -203.09912109 152.77807617 C-207.09013176 147.23998833 -211.13028616 141.73972157 -215.1875 136.25 C-219.43527679 130.49272646 -223.68234257 124.73509358 -227.875 118.9375 C-228.5095813 118.0707666 -228.5095813 118.0707666 -229.15698242 117.18652344 C-232 113.23133625 -232 113.23133625 -232 111 C-221.48204255 110.69790763 -210.96512701 110.46737195 -200.44370461 110.32644176 C-195.55709556 110.25877486 -190.67346734 110.16712479 -185.78857422 110.01928711 C-181.06798775 109.87732712 -176.35025407 109.80016929 -171.62769699 109.76659584 C-169.83246311 109.74269558 -168.0373743 109.69601453 -166.24336624 109.62550926 C-152.57572032 109.11005775 -152.57572032 109.11005775 -148.27615356 112.26487732 C-144.79970297 115.74839845 -142.42370721 119.74651215 -140 124 C-138.91151737 125.52811992 -137.80739187 127.04556112 -136.671875 128.5390625 C-135.69606582 129.89971621 -134.72211271 131.2617029 -133.75 132.625 C-128.6403702 139.74547694 -123.4668521 146.81533978 -118.25341797 153.86010742 C-115.26345479 157.90680303 -112.29623722 161.96753533 -109.3671875 166.05859375 C-108.78066406 166.87714844 -108.19414062 167.69570312 -107.58984375 168.5390625 C-106.47716149 170.09529692 -105.36759435 171.65376511 -104.26171875 173.21484375 C-101.72320149 176.76485246 -99.23507428 180.03580515 -96 183 C-90.06968169 175.40414548 -84.3080003 167.71937122 -78.73828125 159.85546875 C-75.48076344 155.25683562 -72.17723676 150.6915713 -68.875 146.125 C-66.93625 143.44375 -64.9975 140.7625 -63 138 C-73.23 138 -83.46 138 -94 138 C-88.41527185 127.94748933 -88.41527185 127.94748933 -85.171875 123.6640625 C-80.99025987 118.03044324 -77.10732408 112.23369362 -73.25 106.375 C-68.59529956 99.34554036 -63.90575829 92.35687363 -59 85.5 C-54.1828283 78.76423654 -49.57351327 71.90325405 -45 65 C-39.97746147 57.4189879 -34.87743613 49.91717357 -29.5847168 42.52270508 C-25.18347636 36.33900308 -20.99911458 30.01781631 -16.8125 23.6875 C-11.4530185 15.58748967 -6.02010828 7.62547049 0 0 Z " fill="#00F0FF" transform="translate(349,6)"/>
<path d="M0 0 C1.56234375 -0.01740234 1.56234375 -0.01740234 3.15625 -0.03515625 C9.46198393 -0.01127089 14.30842042 0.59128829 20 3.375 C23.57362235 7.77330444 25.06681253 11.44493822 25.31640625 17.04296875 C25.35830078 17.93564453 25.40019531 18.82832031 25.44335938 19.74804688 C25.48267578 20.67681641 25.52199219 21.60558594 25.5625 22.5625 C25.60568359 23.50287109 25.64886719 24.44324219 25.69335938 25.41210938 C25.79938665 27.73292854 25.90145029 30.05385325 26 32.375 C26.88042969 32.48457031 27.76085937 32.59414062 28.66796875 32.70703125 C30.41013672 32.94486328 30.41013672 32.94486328 32.1875 33.1875 C33.33605469 33.33832031 34.48460937 33.48914063 35.66796875 33.64453125 C39 34.375 39 34.375 41.61328125 36.07421875 C42.40089844 36.50347656 43.18851563 36.93273437 44 37.375 C46.53666043 36.6657973 46.53666043 36.6657973 49 35.375 C49.87398437 35.26542969 50.74796875 35.15585938 51.6484375 35.04296875 C55.2578519 34.40692581 57.11210373 33.69940431 60 31.375 C62.62765566 26.34962285 63.9884445 20.86148329 65.46484375 15.4140625 C66.97755592 9.9730165 68.81128336 5.96181956 73.5 2.5625 C79.39842302 -0.23925093 85.33280494 0.15577791 91.75 0.125 C92.80960938 0.104375 93.86921875 0.08375 94.9609375 0.0625 C102.30526246 0.02605174 108.59683158 0.4196169 114.375 5.4375 C118.66627733 13.19480902 118.48416048 22.71432597 119 31.375 C120.02480469 31.59414062 121.04960938 31.81328125 122.10546875 32.0390625 C134.39523705 34.84993129 134.39523705 34.84993129 137.3125 38.0625 C142.25164122 47.75785128 142.50156359 59.98487348 139.75390625 70.4375 C138.05443114 74.80506298 135.5904917 77.65204923 131.25 79.625 C127.17221197 80.56602801 123.08530365 81.46715475 119 82.375 C119 93.265 119 104.155 119 115.375 C122.96 116.035 126.92 116.695 131 117.375 C135.97400834 119.81837252 138.03749926 122.21052437 140 127.375 C142.01415646 135.61473095 142.18843901 146.64784163 137.96484375 154.234375 C132.6125441 161.18720156 125.17508929 162.24834249 117 163.375 C113.03662479 163.65654404 109.09742701 163.70987627 105.125 163.6875 C104.0728833 163.68186035 103.0207666 163.6762207 101.93676758 163.67041016 C88.98568944 163.46825284 77.02685625 161.32562971 66.90234375 152.55859375 C60.11769547 145.42823091 56.93793806 136.21012728 56.82641602 126.44873047 C56.81292618 125.4977951 56.79943634 124.54685974 56.78553772 123.56710815 C56.76988014 122.04502243 56.76988014 122.04502243 56.75390625 120.4921875 C56.72098989 118.33463102 56.6877779 116.17707904 56.65429688 114.01953125 C56.6067542 110.62454088 56.5622649 107.22957154 56.52319336 103.83447266 C56.48358674 100.55352699 56.43204098 97.272938 56.37890625 93.9921875 C56.3704921 92.97341522 56.36207794 91.95464294 56.35340881 90.90499878 C56.33676682 89.96036774 56.32012482 89.01573669 56.30297852 88.04248047 C56.28751732 86.79602249 56.28751732 86.79602249 56.27174377 85.52438354 C56.12491821 83.07925923 56.12491821 83.07925923 54 80.375 C51.49299157 78.62064752 48.90996637 77.32439057 46 76.375 C43.27102833 76.86654083 43.27102833 76.86654083 41 78.375 C37.57386288 80.03912374 34.58433942 80.58955032 30.82421875 80.93359375 C29.47009888 81.06012329 29.47009888 81.06012329 28.08862305 81.18920898 C27.39937744 81.25052002 26.71013184 81.31183105 26 81.375 C25.97522627 85.43179377 25.95710507 89.48855806 25.94506836 93.54541016 C25.94004882 94.92464973 25.93323181 96.30388402 25.92456055 97.68310547 C25.9123908 99.66892183 25.90728367 101.65477749 25.90234375 103.640625 C25.89448853 105.43161621 25.89448853 105.43161621 25.88647461 107.25878906 C25.98058054 109.84194617 26.23373845 111.92508419 27 114.375 C28.42892578 114.72111328 28.42892578 114.72111328 29.88671875 115.07421875 C31.14097656 115.40035156 32.39523437 115.72648437 33.6875 116.0625 C34.92886719 116.37574219 36.17023438 116.68898438 37.44921875 117.01171875 C42.17525114 118.82622404 44.739787 121.22500025 47.2890625 125.57421875 C48.35630629 129.77869015 48.36863959 133.86559922 48.375 138.1875 C48.39949219 139.05181641 48.42398438 139.91613281 48.44921875 140.80664062 C48.47652049 146.83577526 47.40300192 151.3418994 44 156.375 C35.43527718 164.71433538 20.06509482 163.85343399 8.91235352 163.79638672 C-5.46558799 163.45440528 -17.51065944 160.20365716 -27.8125 149.75 C-34.42584214 141.51615859 -35.58580485 131.6036816 -35.50390625 121.37109375 C-35.51332748 120.28538589 -35.52274872 119.19967804 -35.53245544 118.08106995 C-35.56083996 114.6580151 -35.56419093 111.23566241 -35.5625 107.8125 C-35.56610692 104.35730707 -35.5755591 100.90261282 -35.60325623 97.44752502 C-35.6200657 95.30854155 -35.62290395 93.16939232 -35.61024475 91.03038025 C-35.61712814 90.06830154 -35.62401154 89.10622284 -35.63110352 88.11499023 C-35.63014175 87.2696019 -35.62917999 86.42421356 -35.62818909 85.5532074 C-36.08832946 82.85753296 -36.86422114 82.03379316 -39 80.375 C-39.969375 79.92125 -40.93875 79.4675 -41.9375 79 C-45.91718706 76.88832932 -48.10766141 74.79851049 -49.6875 70.5078125 C-52.42935974 60.11159432 -52.50154615 47.56106486 -47.125 38.0625 C-44.48422249 35.06804694 -41.95737121 35.01213171 -38.125 34.375 C-34.80624152 33.65245068 -34.80624152 33.65245068 -32 31.375 C-29.27679266 26.117745 -28.02256807 20.3440366 -26.59765625 14.6328125 C-25.09861857 9.10881495 -23.42663439 5.43526455 -18.32055664 2.36523438 C-12.44675259 -0.26057612 -6.32413999 -0.07044215 0 0 Z " fill="#FDFDFD" transform="translate(528,133.625)"/>
<path d="M0 0 C9.44253246 9.09085527 12.09373838 21.5152626 12.37905884 34.15396118 C12.39638565 35.52021133 12.39638565 35.52021133 12.4140625 36.9140625 C12.44311172 38.35777725 12.44311172 38.35777725 12.4727478 39.83065796 C12.53191573 42.86618545 12.57867481 45.90175218 12.625 48.9375 C12.66323772 51.01173412 12.70229269 53.08595334 12.7421875 55.16015625 C12.83756461 60.21081468 12.92182368 65.26154724 13 70.3125 C13.93328125 70.58578125 14.8665625 70.8590625 15.828125 71.140625 C19.98751586 72.67734576 21.49687253 74.69687143 24 78.3125 C27.44733551 86.75667026 27.5672571 97.93997226 24.08984375 106.44921875 C21.10241954 111.55675046 16.90673173 114.29090626 11.375 116.1875 C-3.14771174 119.53735202 -18.85184339 118.4744955 -32.15625 111.70703125 C-35.92046725 109.86111702 -37.80449494 109.77973745 -42 110.3125 C-45.22864454 111.44022836 -48.37530112 112.68762777 -51.5234375 114.0234375 C-59.44379622 116.96019972 -66.89708324 117.67302446 -75.3125 117.625 C-76.83653442 117.61762817 -76.83653442 117.61762817 -78.39135742 117.61010742 C-91.66553709 117.40264849 -103.86197796 114.3168774 -114 105.3125 C-122.44353541 94.26314404 -124.93515199 83.08078491 -123.4375 69.375 C-121.72728879 58.78797822 -116.77222427 49.69611306 -109 42.3125 C-110.91572291 40.29034803 -112.84576131 38.65660348 -115.0625 36.9375 C-119.15389134 33.28136306 -120.07096131 30.52717958 -120.375 25.1875 C-120.10216026 15.52576324 -115.70033746 7.10286119 -109 0.3125 C-82.18389483 -22.73912594 -27.48938982 -22.17631448 0 0 Z " fill="#FEFEFE" transform="translate(464,179.6875)"/>
<path d="M0 0 C0.773508 -0.00145523 1.54701599 -0.00291046 2.34396362 -0.00440979 C3.96583861 -0.00276181 5.58773106 0.0086748 7.20947266 0.02954102 C9.6806921 0.05860557 12.14977504 0.05010599 14.62109375 0.03710938 C16.2057395 0.04334514 17.79037855 0.05173482 19.375 0.0625 C20.47208786 0.05809654 20.47208786 0.05809654 21.59133911 0.05360413 C27.11085259 0.15441515 31.10710797 1.47051069 35.3671875 4.99609375 C38.00783058 8.33164291 38.02273032 12.19568742 37.96630859 16.26904297 C37.02544074 23.64531302 33.95699453 30.62783927 31.3671875 37.55859375 C30.70303658 39.36996325 30.04023203 41.18182687 29.37866211 42.99414062 C27.92360335 46.97100741 26.45819766 50.94387627 24.98632812 54.91455078 C22.58484812 61.4003903 20.2195996 67.89915475 17.85714149 74.39929008 C16.0103437 79.47646566 14.1549208 84.55049647 12.30041122 89.62485886 C11.62548811 91.47335977 10.95233559 93.32250685 10.27920532 95.17166138 C2.03103812 117.79685423 2.03103812 117.79685423 -2.828125 128.77734375 C-3.13801865 129.47794922 -3.44791229 130.17855469 -3.76719666 130.90039062 C-9.12819859 142.68549716 -18.3085509 157.9325797 -30.4453125 163.49609375 C-35.15981372 164.22714248 -39.82303124 164.17318096 -44.5859375 164.125 C-45.95880318 164.12582968 -47.33166875 164.1282928 -48.70452881 164.13230896 C-51.56927702 164.13515601 -54.43323856 164.12056747 -57.29785156 164.09301758 C-60.96908109 164.05880533 -64.63891711 164.06500501 -68.310215 164.08368015 C-71.13958368 164.09424294 -73.96862755 164.08532148 -76.797966 164.07029533 C-78.80932816 164.06260178 -80.82072964 164.06996499 -82.83209229 164.07752991 C-84.05055847 164.06169357 -85.26902466 164.04585724 -86.52441406 164.02954102 C-88.13488617 164.02024315 -88.13488617 164.02024315 -89.77789307 164.01075745 C-92.4453125 163.49609375 -92.4453125 163.49609375 -94.25286865 161.6502533 C-97.01419014 156.66190348 -96.7007381 151.86002995 -96.7578125 146.30859375 C-96.78681641 145.38755859 -96.81582031 144.46652344 -96.84570312 143.51757812 C-96.90092564 137.53230761 -96.33608288 132.28035752 -92.4453125 127.49609375 C-88.86409396 124.85241478 -86.33629498 124.12840424 -81.91796875 124.125 C-80.87833984 124.10759766 -79.83871094 124.09019531 -78.76757812 124.07226562 C-76.59832012 124.06316748 -74.42904232 124.05794506 -72.25976562 124.05664062 C-66.02712025 123.94472315 -62.13328579 123.77310834 -57.4453125 119.49609375 C-55.31649004 117.01689153 -54.25274728 114.65487062 -53.4453125 111.49609375 C-53.7503337 109.46904317 -53.7503337 109.46904317 -54.57373047 107.45483398 C-54.86270203 106.66664276 -55.15167358 105.87845154 -55.44940186 105.06637573 C-55.77805237 104.21818268 -56.10670288 103.36998962 -56.4453125 102.49609375 C-56.77895813 101.61398224 -57.11260376 100.73187073 -57.45635986 99.82302856 C-58.60360897 96.82248849 -59.77558206 93.83252756 -60.953125 90.84375 C-61.61100006 89.1670372 -61.61100006 89.1670372 -62.28216553 87.45645142 C-63.70903099 83.82283736 -65.13958562 80.19068891 -66.5703125 76.55859375 C-67.06134583 75.30942717 -67.55225109 74.06021024 -68.04302979 72.8109436 C-73.19268547 59.70400824 -78.37254886 46.61058829 -83.6796875 33.56640625 C-84.07924652 32.5839946 -84.47880554 31.60158295 -84.89047241 30.58940125 C-86.75650162 26.00702707 -88.63076283 21.42821758 -90.51611328 16.85375977 C-91.17744871 15.23846033 -91.83874667 13.62314555 -92.5 12.0078125 C-92.80202332 11.28236237 -93.10404663 10.55691223 -93.41522217 9.80947876 C-94.61301585 6.87446898 -95.4453125 4.69929757 -95.4453125 1.49609375 C-89.0226906 1.34348864 -82.60053904 1.23868937 -76.17651367 1.16650391 C-73.99306772 1.1364008 -71.809742 1.09550805 -69.62670898 1.04345703 C-66.48130585 0.97035812 -63.3375062 0.93657208 -60.19140625 0.91015625 C-59.2213414 0.87918854 -58.25127655 0.84822083 -57.2518158 0.8163147 C-52.40264279 0.81392713 -49.24842928 1.12632244 -45.41137695 4.24365234 C-43.00177197 6.6605618 -41.35696607 8.85668555 -40.2421875 12.12109375 C-39.93990234 12.98089844 -39.63761719 13.84070313 -39.32617188 14.7265625 C-39.03548828 15.64050781 -38.74480469 16.55445313 -38.4453125 17.49609375 C-38.12884766 18.46160156 -37.81238281 19.42710937 -37.48632812 20.421875 C-36.52223474 23.43735573 -35.60250128 26.46304629 -34.6953125 29.49609375 C-34.37949219 30.53121094 -34.06367187 31.56632812 -33.73828125 32.6328125 C-31.4453125 40.22641031 -31.4453125 40.22641031 -31.4453125 42.49609375 C-29.11532191 41.62247319 -29.11532191 41.62247319 -28.45556641 38.63208008 C-28.11444824 37.3767749 -27.77333008 36.12146973 -27.421875 34.828125 C-27.03657357 33.44593141 -26.65115301 32.06377103 -26.265625 30.68164062 C-25.66781124 28.50147939 -25.07351626 26.32042026 -24.48242188 24.13842773 C-23.90884684 22.03236188 -23.32216806 19.93025967 -22.734375 17.828125 C-22.39100098 16.56718018 -22.04762695 15.30623535 -21.69384766 14.00708008 C-19.78947721 8.65182953 -17.75251389 4.9471578 -12.72314453 2.15209961 C-8.44444716 0.24336751 -4.63756976 -0.07162828 0 0 Z " fill="#FDFDFD" transform="translate(911.4453125,166.50390625)"/>
<path d="M0 0 C10.53545921 -0.25547753 21.07017562 -0.45062109 31.60810757 -0.56993389 C36.50214381 -0.62721651 41.39405319 -0.70482878 46.28686523 -0.82983398 C51.01384738 -0.94983912 55.73879186 -1.01522183 60.46718025 -1.04364967 C62.26590109 -1.06389152 64.0645169 -1.10342485 65.86236382 -1.16303062 C79.93657305 -1.61085668 79.93657305 -1.61085668 85.07284546 2.39888 C87.36154262 5.16515596 89.21020928 7.89414812 91 11 C91.85524725 12.17866055 92.722595 13.34878298 93.609375 14.50390625 C94.31578125 15.51324219 95.0221875 16.52257812 95.75 17.5625 C96.59322401 18.75818361 97.43700276 19.95347615 98.28125 21.1484375 C98.71953125 21.77073242 99.1578125 22.39302734 99.609375 23.03417969 C102.13317439 26.60188206 104.69134639 30.14474885 107.25 33.6875 C107.79567627 34.44305176 108.34135254 35.19860352 108.90356445 35.97705078 C115.21075676 44.69427861 121.60480013 53.34725577 128 62 C135.41685183 72.03504553 142.80439947 82.08789357 150.09472656 92.21533203 C153.53252449 96.98493664 156.9981512 101.73290003 160.48828125 106.46435547 C161.68975561 108.09322797 162.88903251 109.72372399 164.0859375 111.35595703 C166.5884969 114.76419782 169.09979035 118.15413941 171.73046875 121.46484375 C172.47941406 122.42519531 173.22835937 123.38554687 174 124.375 C174.639375 125.16648437 175.27875 125.95796875 175.9375 126.7734375 C177 129 177 129 176.546875 131.28125 C174.37437836 135.09957742 171.85899161 138.59439952 169.25 142.125 C168.67652832 142.90979736 168.10305664 143.69459473 167.51220703 144.50317383 C165.6805416 147.00638371 163.84096355 149.50362247 162 152 C160.8045435 153.62619624 159.60922929 155.25249708 158.4140625 156.87890625 C156.65198839 159.27543367 154.88778467 161.67024487 153.11694336 164.06030273 C150.30183554 167.86004582 147.51080671 171.67224347 144.77734375 175.53125 C144.02445068 176.58566284 144.02445068 176.58566284 143.25634766 177.66137695 C142.31690483 178.97967861 141.38514193 180.3034984 140.46240234 181.63354492 C139.38095811 183.14382323 138.19853301 184.58085207 137 186 C136.01 186 135.02 186 134 186 C132.39781713 184.07614334 131.01533028 182.19572246 129.625 180.125 C128.72737802 178.82886193 127.82889897 177.5333171 126.9296875 176.23828125 C126.45370117 175.54686035 125.97771484 174.85543945 125.48730469 174.14306641 C122.95727857 170.49753632 120.35252169 166.90645852 117.75 163.3125 C116.93221069 162.18050171 116.93221069 162.18050171 116.09790039 161.02563477 C109.79129762 152.30674039 103.39579401 143.6535481 97 135 C89.57940327 124.9598876 82.18803961 114.90202492 74.89428711 104.76928711 C70.9660112 99.31893063 66.99287964 93.90316826 63 88.5 C57.91794922 81.6229644 52.88997203 74.70966917 47.89453125 67.76953125 C43.96607984 62.31916162 39.99294732 56.90325984 36 51.5 C30.92536787 44.63300332 25.89938716 37.73352984 20.91870117 30.7980957 C18.0280539 26.78057844 15.10698212 22.78916359 12.14453125 18.82421875 C11.18546875 17.53741211 11.18546875 17.53741211 10.20703125 16.22460938 C8.97346145 14.57264322 7.73539978 12.9240187 6.4921875 11.27929688 C5.93402344 10.53099609 5.37585938 9.78269531 4.80078125 9.01171875 C4.30747314 8.35647217 3.81416504 7.70122559 3.3059082 7.02612305 C1.85377541 4.77313183 0.96528556 2.49458323 0 0 Z " fill="#FFFFFF" transform="translate(16,117)"/>
<path d="M0 0 C1.05960938 -0.020625 2.11921875 -0.04125 3.2109375 -0.0625 C10.55526246 -0.09894826 16.84683158 0.2946169 22.625 5.3125 C26.91627733 13.06980902 26.73416048 22.58932597 27.25 31.25 C28.27480469 31.46914062 29.29960938 31.68828125 30.35546875 31.9140625 C42.64523705 34.72493129 42.64523705 34.72493129 45.5625 37.9375 C50.50164122 47.63285128 50.75156359 59.85987348 48.00390625 70.3125 C46.30443114 74.68006298 43.8404917 77.52704923 39.5 79.5 C35.42221197 80.44102801 31.33530365 81.34215475 27.25 82.25 C27.25 93.14 27.25 104.03 27.25 115.25 C33.19 116.24 33.19 116.24 39.25 117.25 C39.25 125.5 39.25 133.75 39.25 142.25 C24.63163904 148.09734438 5.1526931 148.49742715 -9.75 143.25 C-16.17501814 140.29909591 -20.81065114 136.12869773 -24 129.75 C-25.44581488 124.93061705 -25.87447505 120.25957326 -25.86352539 115.24462891 C-25.86344986 114.08387848 -25.86337433 112.92312805 -25.86329651 111.72720337 C-25.85813522 110.48949188 -25.85297394 109.2517804 -25.84765625 107.9765625 C-25.8462413 106.69768158 -25.84482635 105.41880066 -25.84336853 104.10116577 C-25.83873022 100.71788664 -25.82976081 97.33467614 -25.81866455 93.95141602 C-25.80839515 90.49235626 -25.80385911 87.03328939 -25.79882812 83.57421875 C-25.78781609 76.7994579 -25.77056018 70.02473833 -25.75 63.25 C-30.7 63.25 -35.65 63.25 -40.75 63.25 C-40.75 53.68 -40.75 44.11 -40.75 34.25 C-37.78 33.26 -34.81 32.27 -31.75 31.25 C-30.00922149 29.16389304 -30.00922149 29.16389304 -29.48046875 26.57421875 C-29.21169922 25.66349609 -28.94292969 24.75277344 -28.66601562 23.81445312 C-28.42560547 22.86505859 -28.18519531 21.91566406 -27.9375 20.9375 C-23.9600703 6.57730097 -23.9600703 6.57730097 -18.25 2.4375 C-12.35157698 -0.36425093 -6.41719506 0.03077791 0 0 Z " fill="#FDFDFD" transform="translate(619.75,133.75)"/>
<path d="M0 0 C8.22193127 -0.2822454 19.13577344 0.41944922 26.6171875 4.16015625 C26.6171875 12.41015625 26.6171875 20.66015625 26.6171875 29.16015625 C18.8671875 29.41015625 18.8671875 29.41015625 16.44628906 29.45800781 C13.23639834 29.61162979 10.92486217 29.97398368 8.1640625 31.64453125 C5.88100285 34.95659536 5.88100285 34.95659536 5.6171875 43.16015625 C12.5471875 43.16015625 19.4771875 43.16015625 26.6171875 43.16015625 C26.6171875 52.73015625 26.6171875 62.30015625 26.6171875 72.16015625 C19.6871875 72.16015625 12.7571875 72.16015625 5.6171875 72.16015625 C5.6171875 98.56015625 5.6171875 124.96015625 5.6171875 152.16015625 C-8.2428125 152.16015625 -22.1028125 152.16015625 -36.3828125 152.16015625 C-36.3828125 125.76015625 -36.3828125 99.36015625 -36.3828125 72.16015625 C-41.3328125 72.16015625 -46.2828125 72.16015625 -51.3828125 72.16015625 C-51.3828125 62.59015625 -51.3828125 53.02015625 -51.3828125 43.16015625 C-46.4328125 43.16015625 -41.4828125 43.16015625 -36.3828125 43.16015625 C-36.4653125 41.11828125 -36.5478125 39.07640625 -36.6328125 36.97265625 C-36.60131275 26.58823991 -34.65269539 17.29037713 -27.1640625 9.73828125 C-19.21134399 2.69245169 -10.3626624 0.69650682 0 0 Z " fill="#FEFEFE" transform="translate(788.3828125,124.83984375)"/>
<path d="M0 0 C9.44253246 9.09085527 12.09373838 21.5152626 12.37905884 34.15396118 C12.39638565 35.52021133 12.39638565 35.52021133 12.4140625 36.9140625 C12.44311172 38.35777725 12.44311172 38.35777725 12.4727478 39.83065796 C12.53191573 42.86618545 12.57867481 45.90175218 12.625 48.9375 C12.66323772 51.01173412 12.70229269 53.08595334 12.7421875 55.16015625 C12.83756461 60.21081468 12.92182368 65.26154724 13 70.3125 C13.66 70.6425 14.32 70.9725 15 71.3125 C13.56344146 71.39381463 12.1255517 71.45183559 10.6875 71.5 C9.48673828 71.55220703 9.48673828 71.55220703 8.26171875 71.60546875 C6 71.3125 6 71.3125 4.26953125 69.98828125 C1.93147093 66.90204163 1.87272414 64.06794137 1.8581543 60.34130859 C1.84760262 58.82360367 1.84760262 58.82360367 1.83683777 57.27523804 C1.83059135 55.63465927 1.83059135 55.63465927 1.82421875 53.9609375 C1.80101138 51.6419181 1.77689368 49.32290766 1.75195312 47.00390625 C1.71691243 43.35036297 1.68753555 39.69714751 1.67407227 36.04345703 C1.65852975 32.51554599 1.61826864 28.98859316 1.57421875 25.4609375 C1.57612717 24.37936371 1.57803558 23.29778992 1.58000183 22.18344116 C1.43626484 13.19959396 -0.86082748 5.64882753 -7.0546875 -1.05859375 C-24.09139048 -15.32426672 -50.98508303 -13.9345355 -71.6875 -12.50146484 C-84.20302617 -11.18615591 -95.68081249 -6.15707497 -105 2.3125 C-109.78626371 8.44321981 -109.82843336 15.69731687 -111 23.3125 C-97.47 23.3125 -83.94 23.3125 -70 23.3125 C-69.67 21.3325 -69.34 19.3525 -69 17.3125 C-65.28091869 13.50171532 -59.95529123 13.0205127 -54.875 12.875 C-50.23793793 13.0445773 -46.85782486 13.54277959 -43 16.3125 C-40.26049532 19.34457315 -39.57899063 21.51184242 -39.3125 25.5625 C-39.24675781 26.45453125 -39.18101562 27.3465625 -39.11328125 28.265625 C-39.05720703 29.27882813 -39.05720703 29.27882813 -39 30.3125 C-40.27508423 30.37981323 -40.27508423 30.37981323 -41.57592773 30.44848633 C-76.97368944 30.67079196 -76.97368944 30.67079196 -107 46.3125 C-113.42549406 56.44871688 -114.79033051 68.26869806 -112.46875 79.99609375 C-111.70493889 82.27400304 -111.70493889 82.27400304 -110 85.3125 C-109.525625 86.34375 -109.05125 87.375 -108.5625 88.4375 C-101.44230396 96.42601263 -90.59031399 98.92853043 -80.3125 99.52734375 C-65.86812378 100.01023285 -53.98717684 96.85142713 -41.30078125 90.0546875 C-38 88.3125 -38 88.3125 -35 87.3125 C-34.68289063 87.77140625 -34.36578125 88.2303125 -34.0390625 88.703125 C-29.29023779 94.94743594 -23.71910188 97.34941798 -16.12890625 98.8984375 C-5.31027382 100.3301167 4.52709315 99.13665466 15 96.3125 C15.33 88.0625 15.66 79.8125 16 71.3125 C20.88639075 74.24433445 23.73178779 76.59129838 25.59375 82.0546875 C27.07326991 90.27740392 27.32610715 100.91625229 23 108.3125 C18.40662009 114.24070826 12.23829083 116.347926 5 117.3125 C-8.25907655 118.33264163 -20.12136814 117.82873477 -32.15625 111.70703125 C-35.92046725 109.86111702 -37.80449494 109.77973745 -42 110.3125 C-45.22864454 111.44022836 -48.37530112 112.68762777 -51.5234375 114.0234375 C-59.44379622 116.96019972 -66.89708324 117.67302446 -75.3125 117.625 C-76.83653442 117.61762817 -76.83653442 117.61762817 -78.39135742 117.61010742 C-91.66553709 117.40264849 -103.86197796 114.3168774 -114 105.3125 C-122.44353541 94.26314404 -124.93515199 83.08078491 -123.4375 69.375 C-121.72728879 58.78797822 -116.77222427 49.69611306 -109 42.3125 C-110.91572291 40.29034803 -112.84576131 38.65660348 -115.0625 36.9375 C-119.15389134 33.28136306 -120.07096131 30.52717958 -120.375 25.1875 C-120.10216026 15.52576324 -115.70033746 7.10286119 -109 0.3125 C-82.18389483 -22.73912594 -27.48938982 -22.17631448 0 0 Z " fill="#000000" transform="translate(464,179.6875)"/>
<path d="M0 0 C13.86 0 27.72 0 42 0 C42 35.97 42 71.94 42 109 C28.14 109 14.28 109 0 109 C0 73.03 0 37.06 0 0 Z " fill="#FEFEFE" transform="translate(679,168)"/>
<path d="M0 0 C2.31 0.66 4.62 1.32 7 2 C8.65 1.34 10.3 0.68 12 0 C12 9.24 12 18.48 12 28 C16.95 28 21.9 28 27 28 C27.029729 30.56479126 27.029729 30.56479126 27.06005859 33.18139648 C27.12811356 38.8612072 27.20490886 44.54085586 27.28752708 50.22047329 C27.33725339 53.6605325 27.38358318 57.10056448 27.421875 60.54077148 C27.46615636 64.50521417 27.52570702 68.4693601 27.5859375 72.43359375 C27.59748871 73.65582138 27.60903992 74.87804901 27.62094116 76.13731384 C27.80267409 86.75174168 28.36736463 95.19667871 36.0625 103.125 C52.50975388 113.62324716 72.94640627 110.67191737 91 107 C91.33 99.08 91.66 91.16 92 83 C98.07843137 85.43137255 98.07843137 85.43137255 100 89 C102.92052992 98.09014937 102.98502007 107.90574195 100 117 C97.44313018 121.59271711 93.88633618 124.19024586 89 126 C81.37680442 127.80384588 73.93938627 128.35651763 66.125 128.3125 C65.0728833 128.30686035 64.0207666 128.3012207 62.93676758 128.29541016 C49.98568944 128.09325284 38.02685625 125.95062971 27.90234375 117.18359375 C21.11769547 110.05323091 17.93793806 100.83512728 17.82641602 91.07373047 C17.81292618 90.1227951 17.79943634 89.17185974 17.78553772 88.19210815 C17.77509933 87.17738434 17.76466095 86.16266052 17.75390625 85.1171875 C17.72098989 82.95963102 17.6877779 80.80207904 17.65429688 78.64453125 C17.6067542 75.24954088 17.5622649 71.85457154 17.52319336 68.45947266 C17.48358674 65.17852699 17.43204098 61.897938 17.37890625 58.6171875 C17.3704921 57.59841522 17.36207794 56.57964294 17.35340881 55.52999878 C17.32844582 54.11305222 17.32844582 54.11305222 17.30297852 52.66748047 C17.29267105 51.83650848 17.28236359 51.0055365 17.27174377 50.14938354 C17.12491821 47.70425923 17.12491821 47.70425923 15 45 C12.49299157 43.24564752 9.90996637 41.94939057 7 41 C4.27102833 41.49154083 4.27102833 41.49154083 2 43 C-1.42613712 44.66412374 -4.41566058 45.21455032 -8.17578125 45.55859375 C-9.07852783 45.64294678 -9.98127441 45.7272998 -10.91137695 45.81420898 C-11.60062256 45.87552002 -12.28986816 45.93683105 -13 46 C-13.02477373 50.05679377 -13.04289493 54.11355806 -13.05493164 58.17041016 C-13.05995118 59.54964973 -13.06676819 60.92888402 -13.07543945 62.30810547 C-13.0876092 64.29392183 -13.09271633 66.27977749 -13.09765625 68.265625 C-13.10289307 69.45961914 -13.10812988 70.65361328 -13.11352539 71.88378906 C-13.10103099 75.18253302 -13.10103099 75.18253302 -12 79 C-9.36 79.66 -6.72 80.32 -4 81 C-4 81.33 -4 81.66 -4 82 C-6.06132142 82.10864945 -8.12431321 82.18588321 -10.1875 82.25 C-11.91033203 82.31960937 -11.91033203 82.31960937 -13.66796875 82.390625 C-17.65710294 81.92296566 -19.21091307 80.83497684 -22 78 C-22.95987611 75.12037166 -23.12153814 73.33372559 -23.11352539 70.3449707 C-23.11344986 69.40422195 -23.11337433 68.46347321 -23.11329651 67.49421692 C-23.10813522 66.48163315 -23.10297394 65.46904938 -23.09765625 64.42578125 C-23.0962413 63.38681198 -23.09482635 62.34784271 -23.09336853 61.27738953 C-23.08776656 57.95573052 -23.07521372 54.63413867 -23.0625 51.3125 C-23.05748525 49.06184993 -23.0529223 46.81119881 -23.04882812 44.56054688 C-23.03864696 39.04031783 -23.01907183 33.52023418 -23 28 C-15.41 28 -7.82 28 0 28 C0 18.76 0 9.52 0 0 Z " fill="#000000" transform="translate(567,169)"/>
<path d="M0 0 C3.82442209 1.76998047 5.33540146 3.00496351 7 7 C8.79318997 16.74458879 4.15053733 26.12935675 0.8125 35.0625 C0.14834908 36.8738695 -0.51445547 38.68573312 -1.17602539 40.49804688 C-2.63108415 44.47491366 -4.09648984 48.44778252 -5.56835938 52.41845703 C-7.96983938 58.90429655 -10.3350879 65.403061 -12.69754601 71.90319633 C-14.5443438 76.98037191 -16.3997667 82.05440272 -18.25427628 87.12876511 C-18.92919939 88.97726602 -19.60235191 90.8264131 -20.27548218 92.67556763 C-28.52364938 115.30076048 -28.52364938 115.30076048 -33.3828125 126.28125 C-33.69270615 126.98185547 -34.00259979 127.68246094 -34.32188416 128.40429688 C-39.68288609 140.18940341 -48.8632384 155.43648595 -61 161 C-65.71450122 161.73104873 -70.37771874 161.67708721 -75.140625 161.62890625 C-76.51349068 161.62973593 -77.88635625 161.63219905 -79.25921631 161.63621521 C-82.12396452 161.63906226 -84.98792606 161.62447372 -87.85253906 161.59692383 C-91.52376859 161.56271158 -95.19360461 161.56891126 -98.8649025 161.5875864 C-101.69427118 161.59814919 -104.52331505 161.58922773 -107.3526535 161.57420158 C-109.36401566 161.56650803 -111.37541714 161.57387124 -113.38677979 161.58143616 C-114.60524597 161.56559982 -115.82371216 161.54976349 -117.07910156 161.53344727 C-118.68957367 161.5241494 -118.68957367 161.5241494 -120.33258057 161.5146637 C-123 161 -123 161 -124.80755615 159.15415955 C-127.56887764 154.16580973 -127.2554256 149.3639362 -127.3125 143.8125 C-127.34150391 142.89146484 -127.37050781 141.97042969 -127.40039062 141.02148438 C-127.45464711 135.14091586 -126.99454371 129.62340128 -123 125 C-120.525 124.01 -120.525 124.01 -118 123 C-118 131.25 -118 139.5 -118 148 C-99.82728769 151.30412951 -81.8244378 153.39205122 -65 144 C-47.27097589 131.56198152 -40.14578443 108.5432127 -33.125 89.0625 C-32.39834212 87.06922891 -31.67069936 85.07631662 -30.94213867 83.08374023 C-29.41193358 78.8947719 -27.88678063 74.704017 -26.36572266 70.51171875 C-22.76224638 60.58441962 -19.12317252 50.67017591 -15.48358154 40.756073 C-14.34134924 37.64117271 -13.20279495 34.52494933 -12.06494141 31.40844727 C-8.20918664 20.86759313 -4.25874699 10.38547273 0 0 Z " fill="#000000" transform="translate(942,169)"/>
<path d="M0 0 C0 9.57 0 19.14 0 29 C4.95 29 9.9 29 15 29 C15.01458252 30.77044678 15.02916504 32.54089355 15.04418945 34.36499023 C15.09604048 40.24441179 15.16137919 46.12360234 15.23571491 52.00277615 C15.2802562 55.5639204 15.31954678 59.12495454 15.34643555 62.6862793 C15.37765655 66.78983669 15.43243778 70.89279699 15.48828125 74.99609375 C15.49467117 76.26206894 15.5010611 77.52804413 15.50764465 78.8323822 C15.66234563 88.21538432 16.56138327 96.42461225 23.2109375 103.5 C33.34126661 111.99355105 48.49949491 111.92337685 61 111 C67.05835346 110.27327844 73.0012891 109.13361466 79 108 C79.33 100.08 79.66 92.16 80 84 C85.47987244 86.19194898 86.04306761 86.7340603 88.25 91.6640625 C89.5677307 95.76824459 89.57777616 99.72231102 89.5 104 C89.52320313 105.27617187 89.52320313 105.27617187 89.546875 106.578125 C89.51042214 112.51994103 88.32981454 117.0351286 85 122 C76.43527718 130.33933538 61.06509482 129.47843399 49.91235352 129.42138672 C35.53441201 129.07940528 23.48934056 125.82865716 13.1875 115.375 C6.57415786 107.14115859 5.41419515 97.2286816 5.49609375 86.99609375 C5.48667252 85.91038589 5.47725128 84.82467804 5.46754456 83.70606995 C5.43916004 80.2830151 5.43580907 76.86066241 5.4375 73.4375 C5.43389308 69.98230707 5.4244409 66.52761282 5.39674377 63.07252502 C5.3799343 60.93354155 5.37709605 58.79439232 5.38975525 56.65538025 C5.38287186 55.69330154 5.37598846 54.73122284 5.36889648 53.73999023 C5.36985825 52.8946019 5.37082001 52.04921356 5.37181091 51.1782074 C4.91167054 48.48253296 4.13577886 47.65879316 2 46 C1.030625 45.54625 0.06125 45.0925 -0.9375 44.625 C-4.91718706 42.51332932 -7.10766141 40.42351049 -8.6875 36.1328125 C-11.06262855 27.12711676 -11.47836396 15.77536492 -8 7 C-3.54545455 0 -3.54545455 0 0 0 Z " fill="#000000" transform="translate(487,168)"/>
<path d="M0 0 C6.85099678 5.27895503 12.54014776 12.65957781 14.09375 21.36328125 C14.20203125 22.42095703 14.20203125 22.42095703 14.3125 23.5 C14.4053125 24.38042969 14.498125 25.26085937 14.59375 26.16796875 C15.03110559 34.4449232 13.15215464 42.16423878 9.3125 49.5 C6.10723726 51.9106808 4.60529522 51.5 0.3125 51.5 C0.3125 42.26 0.3125 33.02 0.3125 23.5 C-5.2975 23.5 -10.9075 23.5 -16.6875 23.5 C-16.666875 24.964375 -16.64625 26.42875 -16.625 27.9375 C-16.60357993 29.45832518 -16.61570036 30.98071962 -16.6875 32.5 C-17.6875 33.5 -17.6875 33.5 -19.75390625 33.59765625 C-20.57761719 33.58605469 -21.40132812 33.57445312 -22.25 33.5625 C-23.07628906 33.55347656 -23.90257812 33.54445312 -24.75390625 33.53515625 C-25.39199219 33.52355469 -26.03007813 33.51195312 -26.6875 33.5 C-27.3125 30.125 -27.3125 30.125 -27.6875 26.5 C-27.0275 25.84 -26.3675 25.18 -25.6875 24.5 C-31.2975 24.17 -36.9075 23.84 -42.6875 23.5 C-42.66429687 25.13710937 -42.64109375 26.77421875 -42.6171875 28.4609375 C-42.59843297 30.59895379 -42.58023243 32.73697499 -42.5625 34.875 C-42.54574219 35.95523438 -42.52898438 37.03546875 -42.51171875 38.1484375 C-42.50527344 39.1796875 -42.49882813 40.2109375 -42.4921875 41.2734375 C-42.48171387 42.22653809 -42.47124023 43.17963867 -42.46044922 44.16162109 C-42.6875 46.5 -42.6875 46.5 -44.6875 48.5 C-47.41619407 48.46712417 -49.9841618 47.93602229 -52.6875 47.5 C-57.11653922 37.98942917 -58.47204531 28.4654833 -55.83984375 18.19140625 C-51.66909021 7.09296038 -45.14450301 0.60684283 -34.51953125 -4.40625 C-22.6953405 -8.97283401 -10.3661399 -6.90133188 0 0 Z " fill="#2DB6F1" transform="translate(721.6875,106.5)"/>
<path d="M0 0 C5.94 0 11.88 0 18 0 C17.01 1.485 17.01 1.485 16 3 C15.92094936 5.33199388 15.91201231 7.66832622 16 10 C20.455 9.505 20.455 9.505 25 9 C25.33 6.03 25.66 3.06 26 0 C31.61 0 37.22 0 43 0 C43 9.24 43 18.48 43 28 C45.31 27.67 47.62 27.34 50 27 C46.06216345 32.09602377 42.28572958 35.90475681 36 38 C31.82001449 38.29560692 27.64024666 38.35589796 23.45068359 38.4050293 C22.07737939 38.42651241 20.70420849 38.46050086 19.33154297 38.50756836 C11.29592537 38.78007724 5.27464223 38.71560314 -1.22387695 33.66333008 C-4.07001228 30.99793901 -6.85101252 28.26983192 -9 25 C-9 24.34 -9 23.68 -9 23 C-7.865625 23.185625 -6.73125 23.37125 -5.5625 23.5625 C-4.386875 23.706875 -3.21125 23.85125 -2 24 C-0.31699331 22.31699331 -0.77190923 20.17991273 -0.68359375 17.87109375 C-0.64169922 16.83662109 -0.59980469 15.80214844 -0.55664062 14.73632812 C-0.51732422 13.64771484 -0.47800781 12.55910156 -0.4375 11.4375 C-0.39431641 10.34501953 -0.35113281 9.25253906 -0.30664062 8.12695312 C-0.20018042 5.41813232 -0.09955193 2.70908349 0 0 Z " fill="#0F3F54" transform="translate(679,130)"/>
<path d="M0 0 C5.45200249 3.2712015 7.6065997 4.93227456 9.1875 10.9375 C10.94748045 19.9148793 11.66374527 31.58498941 6.96484375 39.8125 C2.1662202 46.23123761 -4.46855617 46.32634582 -12 48 C-12 58.89 -12 69.78 -12 81 C-9.03 81.33 -6.06 81.66 -3 82 C-3 82.33 -3 82.66 -3 83 C-15.48535025 83.76027167 -15.48535025 83.76027167 -19.0078125 81.9921875 C-21.62163845 79.37836155 -22.90992159 76.57835521 -23.12025452 72.89289856 C-23.11803391 72.08237534 -23.11581329 71.27185211 -23.11352539 70.43676758 C-23.11344986 69.51603958 -23.11337433 68.59531158 -23.11329651 67.64668274 C-23.10813522 66.65597275 -23.10297394 65.66526276 -23.09765625 64.64453125 C-23.0962413 63.62775803 -23.09482635 62.6109848 -23.09336853 61.56340027 C-23.08776707 58.31307036 -23.07521432 55.06280912 -23.0625 51.8125 C-23.05748519 49.61002704 -23.05292225 47.40755299 -23.04882812 45.20507812 C-23.03864769 39.80333762 -23.01907246 34.40174575 -23 29 C-15.41 29 -7.82 29 0 29 C0 19.43 0 9.86 0 0 Z " fill="#000000" transform="translate(659,168)"/>
<path d="M0 0 C9.75308867 5.14746346 11.52839055 14.22275818 14.5859375 24.09375 C15.67719577 27.66482067 16.76247859 31.23760468 17.828125 34.81640625 C18.0540332 35.57381104 18.27994141 36.33121582 18.51269531 37.11157227 C19 39 19 39 19 41 C21.32999059 40.12637944 21.32999059 40.12637944 21.98974609 37.13598633 C22.33086426 35.88068115 22.67198242 34.62537598 23.0234375 33.33203125 C23.40873893 31.94983766 23.79415949 30.56767728 24.1796875 29.18554688 C24.77750126 27.00538564 25.37179624 24.82432651 25.96289062 22.64233398 C26.53646566 20.53626813 27.12314444 18.43416592 27.7109375 16.33203125 C28.05431152 15.07108643 28.39768555 13.8101416 28.75146484 12.51098633 C30.61092874 7.28201676 32.37294269 3.93868691 37.25 1.125 C38.1575 0.75375 39.065 0.3825 40 0 C36.89787585 13.68063429 33.3988843 27.2520033 29.82666016 40.81665039 C28.86359081 44.48090935 27.91032919 48.14764155 26.95703125 51.81445312 C26.34434963 54.14599099 25.73109026 56.47737712 25.1171875 58.80859375 C24.83382538 59.90425156 24.55046326 60.99990936 24.2585144 62.12876892 C23.99128571 63.13484695 23.72405701 64.14092499 23.44873047 65.17749023 C23.21652802 66.06331284 22.98432556 66.94913544 22.74508667 67.86180115 C22 70 22 70 20 72 C17.95332111 65.06699548 15.90891501 58.13332349 13.8659668 51.19921875 C13.17311036 48.84848452 12.47976487 46.49789436 11.78588867 44.14746094 C5.14463642 21.64872047 5.14463642 21.64872047 2.01171875 10.5234375 C1.80327835 9.79250885 1.59483795 9.0615802 1.38008118 8.3085022 C0.58022071 5.4368367 0 2.99770907 0 0 Z " fill="#000000" transform="translate(861,168)"/>
<path d="M0 0 C0.34354682 6.32380624 0.39277054 11.41834524 -3 17 C-8.26927741 21.79591443 -12.74856596 23.15960126 -19.875 23.25 C-21.08929688 23.27578125 -22.30359375 23.3015625 -23.5546875 23.328125 C-27.23941521 22.97719855 -29.07816773 22.22102379 -32 20 C-33.61834615 16.7633077 -33.5596135 13.49926993 -33 10 C-29.30794646 4.3982636 -23.21159119 2.70882839 -17 1 C-11.35743338 -0.08685071 -5.72849628 -0.10415448 0 0 Z " fill="#000000" transform="translate(425,230)"/>
<path d="M0 0 C3.96 0 7.92 0 12 0 C11.01 1.485 11.01 1.485 10 3 C9.92094936 5.33199388 9.91201231 7.66832622 10 10 C14.455 9.505 14.455 9.505 19 9 C19.33 6.03 19.66 3.06 20 0 C22.97 0 25.94 0 29 0 C30.26369929 3.79109788 30.86606328 7.0923225 30 11 C27.36840267 15.09202802 24.67333941 18.4422202 20 20 C17.291705 19.96305579 14.63649592 19.86170575 11.9375 19.6875 C10.83825195 19.63432617 10.83825195 19.63432617 9.71679688 19.58007812 C4.2433265 19.2433265 4.2433265 19.2433265 2 17 C0.11308334 11.38584055 -0.21354229 5.87241294 0 0 Z " fill="#186586" transform="translate(685,130)"/>
<path d="M0 0 C1.11375 0.185625 2.2275 0.37125 3.375 0.5625 C6.82568861 1.31680657 6.82568861 1.31680657 9 0 C9 2.64 9 5.28 9 8 C23.19 8 37.38 8 52 8 C52 7.01 52 6.02 52 5 C55.465 4.505 55.465 4.505 59 4 C55.06216345 9.09602377 51.28572958 12.90475681 45 15 C40.82001449 15.29560692 36.64024666 15.35589796 32.45068359 15.4050293 C31.07737939 15.42651241 29.70420849 15.46050086 28.33154297 15.50756836 C20.29592537 15.78007724 14.27464223 15.71560314 7.77612305 10.66333008 C4.92998772 7.99793901 2.14898748 5.26983192 0 2 C0 1.34 0 0.68 0 0 Z " fill="#196D91" transform="translate(670,153)"/>
<path d="M0 0 C5.86451919 2.34580767 5.86451919 2.34580767 8 6 C10.4012367 13.32512094 10.54527483 21.36540365 11 29 C15.455 29.99 15.455 29.99 20 31 C20 31.33 20 31.66 20 32 C13.4 32 6.8 32 0 32 C0 21.44 0 10.88 0 0 Z " fill="#000000" transform="translate(636,136)"/>
<path d="M0 0 C5.47647328 2.19058931 6.02665807 2.71161232 8.23632812 7.62890625 C9.60115019 11.86648677 9.67929984 16.07802639 9.75 20.5 C9.77964844 21.4178125 9.80929687 22.335625 9.83984375 23.28125 C9.90981645 25.52037647 9.9572555 27.76018831 10 30 C13.3 30.33 16.6 30.66 20 31 C20 31.33 20 31.66 20 32 C13.4 32 6.8 32 0 32 C0 21.44 0 10.88 0 0 Z " fill="#000000" transform="translate(544,136)"/>
<path d="M0 0 C1.98 0 3.96 0 6 0 C6.20496094 1.21558594 6.40992188 2.43117187 6.62109375 3.68359375 C6.89301961 5.26826514 7.16516643 6.85289863 7.4375 8.4375 C7.57220703 9.23994141 7.70691406 10.04238281 7.84570312 10.86914062 C8.20267224 14.75471303 8.20267224 14.75471303 10 18 C12.59257315 18.31963231 15.1475156 18.56214461 17.75 18.75 C18.46671875 18.81832031 19.1834375 18.88664062 19.921875 18.95703125 C26.03283131 19.3951329 28.82474635 17.88130045 33.3125 14 C35.86056364 9.47010909 35.32057337 5.08464979 35 0 C36.65 0 38.3 0 40 0 C40.28370236 6.95070787 40.34231791 13.05537177 35.8125 18.75 C29.4321513 23.85427896 23.86777807 24.42742456 16 24 C16 23.34 16 22.68 16 22 C14.72125 21.87625 13.4425 21.7525 12.125 21.625 C8.25 21.25 8.25 21.25 6 19 C5.8046875 16.6171875 5.8046875 16.6171875 5.875 13.875 C5.89304687 12.96492187 5.91109375 12.05484375 5.9296875 11.1171875 C5.96449219 10.06917969 5.96449219 10.06917969 6 9 C5.34 9 4.68 9 4 9 C2.65155132 14.6556294 1.63065155 20.2190275 1 26 C0.67 26 0.34 26 0 26 C0 17.42 0 8.84 0 0 Z " fill="#14526D" transform="translate(679,130)"/>
<path d="M0 0 C1.54142568 3.08285137 0.29896284 5.20013064 -0.6171875 8.46875 C-0.79379913 9.10486206 -0.97041077 9.74097412 -1.15237427 10.3963623 C-1.52743039 11.74223084 -1.9059336 13.08714276 -2.28759766 14.43115234 C-2.87213478 16.48990861 -3.4467646 18.55122279 -4.01953125 20.61328125 C-6.82872729 30.65745458 -6.82872729 30.65745458 -8 33 C-12.62 33 -17.24 33 -22 33 C-20.68 32.34 -19.36 31.68 -18 31 C-15.37117525 28.84407733 -14.45475993 27.0083533 -13.53515625 23.76171875 C-13.29216797 22.94123047 -13.04917969 22.12074219 -12.79882812 21.27539062 C-12.31131984 19.56199942 -11.82433324 17.84845969 -11.33789062 16.13476562 C-9.51034318 9.96739575 -7.76642382 4.88619806 -2.25 1.125 C-1.5075 0.75375 -0.765 0.3825 0 0 Z " fill="#010101" transform="translate(604,135)"/>
<path d="M0 0 C-1.48603685 10.94030577 -4.88233521 21.4411164 -8 32 C-12.62 32 -17.24 32 -22 32 C-20.68 31.34 -19.36 30.68 -18 30 C-15.5185665 27.93830605 -14.54131764 26.29940334 -13.71875 23.19921875 C-13.41517578 22.10383789 -13.41517578 22.10383789 -13.10546875 20.98632812 C-12.90566406 20.22771484 -12.70585937 19.46910156 -12.5 18.6875 C-7.50161777 0 -7.50161777 0 0 0 Z " fill="#000000" transform="translate(512,136)"/>
<path d="M0 0 C1.4540625 0.0309375 1.4540625 0.0309375 2.9375 0.0625 C1.9475 1.5475 1.9475 1.5475 0.9375 3.0625 C0.85844936 5.39449388 0.84951231 7.73082622 0.9375 10.0625 C5.3925 9.5675 5.3925 9.5675 9.9375 9.0625 C10.2675 6.0925 10.5975 3.1225 10.9375 0.0625 C12.2575 0.0625 13.5775 0.0625 14.9375 0.0625 C16.11755182 3.75016192 16.14743972 7.21360517 15.9375 11.0625 C13.85290482 14.18939277 13.3578866 14.89236774 9.9375 16.0625 C6.31113097 16.42812157 3.01588608 16.36666018 -0.5 15.375 C-2.69490305 13.53128144 -2.77010214 11.84027966 -3.0625 9.0625 C-3.3925 9.0625 -3.7225 9.0625 -4.0625 9.0625 C-4.16015625 2.91015625 -4.16015625 2.91015625 -4.0625 1.0625 C-3.0625 0.0625 -3.0625 0.0625 0 0 Z " fill="#1C779E" transform="translate(694.0625,129.9375)"/>
<path d="M0 0 C1.67023755 2.95503567 2.30036166 5.31316601 2.5625 8.6875 C2.59506307 11.64181288 2.59506307 11.64181288 4 14 C6.31469584 14.4896472 8.63794836 14.89901 10.96875 15.3046875 C11.6390625 15.53414062 12.309375 15.76359375 13 16 C13.33 16.99 13.66 17.98 14 19 C16.97 19 19.94 19 23 19 C23 19.99 23 20.98 23 22 C14.64251778 22.84327749 6.39802254 23.12190678 -2 23 C-1.43434519 15.32153678 -0.8123221 7.65656792 0 0 Z " fill="#0A2936" transform="translate(681,138)"/>
<path d="M0 0 C8.91 0 17.82 0 27 0 C22 6 22 6 18.1875 6.69140625 C16.79105579 6.67954965 15.3945679 6.6358306 14 6.5625 C12.95199219 6.55959961 12.95199219 6.55959961 11.8828125 6.55664062 C7.47913142 6.44447139 4.45537351 5.76822537 1 3 C0.67 2.01 0.34 1.02 0 0 Z " fill="#1F88B5" transform="translate(686,161)"/>
<path d="M0 0 C0.33 0 0.66 0 1 0 C1 5.61 1 11.22 1 17 C-11.32142857 17.13392857 -11.32142857 17.13392857 -15 16 C-15 15.34 -15 14.68 -15 14 C-13.20703125 12.703125 -13.20703125 12.703125 -10.8125 11.25 C-6.08996298 8.215677 -2.55322662 5.10645324 0 0 Z " fill="#0A2834" transform="translate(721,144)"/>
<path d="M0 0 C0.02689216 1.47906892 0.04634621 2.95827483 0.0625 4.4375 C0.07410156 5.26121094 0.08570313 6.08492187 0.09765625 6.93359375 C0 9 0 9 -1 10 C-2.51928038 10.07179964 -4.04167482 10.08392007 -5.5625 10.0625 C-6.38878906 10.05347656 -7.21507812 10.04445312 -8.06640625 10.03515625 C-8.70449219 10.02355469 -9.34257813 10.01195312 -10 10 C-11.31690141 3.65492958 -11.31690141 3.65492958 -10.0625 1.0625 C-6.74491303 -0.64655995 -3.69558797 -0.18175023 0 0 Z " fill="#2397C9" transform="translate(705,130)"/>
<path d="M0 0 C0.33 0 0.66 0 1 0 C1.68858357 13.96294462 1.68858357 13.96294462 -0.75 17.6875 C-2.73349035 19.7260873 -4.60893561 21.46288718 -7 23 C-5.84826645 20.53199953 -4.95216435 18.95216435 -3 17 C-1.02041695 11.41058903 -0.45048859 5.89191661 0 0 Z M-7 24 C-12.75 28 -12.75 28 -15 28 C-15 28.66 -15 29.32 -15 30 C-13.68 30.33 -12.36 30.66 -11 31 C-16.94 31 -22.88 31 -29 31 C-29 30.67 -29 30.34 -29 30 C-23.06 29.505 -23.06 29.505 -17 29 C-18.00836062 27.76732652 -18.00836062 27.76732652 -20.06640625 27.90234375 C-21.30197266 27.91974609 -21.30197266 27.91974609 -22.5625 27.9375 C-23.80193359 27.95103516 -23.80193359 27.95103516 -25.06640625 27.96484375 C-26.02353516 27.98224609 -26.02353516 27.98224609 -27 28 C-26.67 27.34 -26.34 26.68 -26 26 C-23.671875 25.65625 -23.671875 25.65625 -20.75 25.5 C-17.60150375 25.32981101 -15.25800163 25.1056147 -12.328125 23.90625 C-10 23 -10 23 -7 24 Z " fill="#0D3445" transform="translate(721,130)"/>
<path d="M0 0 C0.66 0.33 1.32 0.66 2 1 C1.34 1.66 0.68 2.32 0 3 C-0.16677282 6.58343976 -0.16677282 6.58343976 0 10 C4.455 9.505 4.455 9.505 9 9 C9.33 6.03 9.66 3.06 10 0 C10.99 0 11.98 0 13 0 C13.60550459 7.87155963 13.60550459 7.87155963 11.625 11.5625 C7.59369405 13.77011992 3.50505269 13.50056141 -1 13 C-2.66561399 11.33438601 -2.17115945 9.34037295 -2.1875 7.0625 C-2.20167969 6.16660156 -2.21585938 5.27070313 -2.23046875 4.34765625 C-2 2 -2 2 0 0 Z " fill="#1F86B2" transform="translate(695,130)"/>
<path d="M0 0 C0.66 0 1.32 0 2 0 C2.28370236 6.95070787 2.34231791 13.05537177 -2.1875 18.75 C-8.5678487 23.85427896 -14.13222193 24.42742456 -22 24 C-22 23.34 -22 22.68 -22 22 C-20.989375 22.061875 -19.97875 22.12375 -18.9375 22.1875 C-12.54901036 21.88328621 -7.57483458 19.44412502 -3 15 C-0.3417132 10.48091245 -0.37819358 5.12551827 0 0 Z " fill="#124961" transform="translate(717,130)"/>
<path d="M0 0 C1.98 0 3.96 0 6 0 C5.34 3.96 4.68 7.92 4 12 C3.67 12 3.34 12 3 12 C2.34 16.62 1.68 21.24 1 26 C0.67 26 0.34 26 0 26 C0 17.42 0 8.84 0 0 Z " fill="#1B4B5F" transform="translate(679,130)"/>
<path d="M0 0 C0 3.3 0 6.6 0 10 C-6.0546875 10.1953125 -6.0546875 10.1953125 -8 10 C-8.66 9.34 -9.32 8.68 -10 8 C-8.52351062 6.66370254 -7.0437367 5.33103329 -5.5625 4 C-4.73878906 3.2575 -3.91507813 2.515 -3.06640625 1.75 C-1 0 -1 0 0 0 Z " fill="#071C25" transform="translate(722,151)"/>
<path d="M0 0 C1.32 0 2.64 0 4 0 C4.03738281 1.12019531 4.07476563 2.24039063 4.11328125 3.39453125 C4.17894257 4.8672209 4.24538986 6.33987566 4.3125 7.8125 C4.33505859 8.55048828 4.35761719 9.28847656 4.38085938 10.04882812 C4.55557955 14.33107039 4.55557955 14.33107039 6.54296875 18.01171875 C7.26419922 18.50091797 7.26419922 18.50091797 8 19 C3.125 18.125 3.125 18.125 2 17 C0.28750566 11.28751889 -0.21586845 5.93638224 0 0 Z " fill="#165C7A" transform="translate(685,130)"/>
<path d="M0 0 C0.33 0 0.66 0 1 0 C1 7.26 1 14.52 1 22 C3.31 22 5.62 22 8 22 C8 22.33 8 22.66 8 23 C4.7 23 1.4 23 -2 23 C-1.43434519 15.32153678 -0.8123221 7.65656792 0 0 Z " fill="#09222D" transform="translate(681,138)"/>
<path d="M0 0 C-1.38788802 1.30020011 -2.78569258 2.5898193 -4.1875 3.875 C-4.96480469 4.59429687 -5.74210938 5.31359375 -6.54296875 6.0546875 C-9.01624448 8.01286129 -10.97350653 9.13811806 -14 10 C-14.99 9.67 -15.98 9.34 -17 9 C-16.34 8.34 -15.68 7.68 -15 7 C-13.68 7 -12.36 7 -11 7 C-10.67 6.01 -10.34 5.02 -10 4 C-9.34 3.67 -8.68 3.34 -8 3 C-7.67 2.01 -7.34 1.02 -7 0 C-2.25 -1.125 -2.25 -1.125 0 0 Z " fill="#155B79" transform="translate(729,158)"/>
<path d="M0 0 C1.11375 0.185625 2.2275 0.37125 3.375 0.5625 C6.82568861 1.31680657 6.82568861 1.31680657 9 0 C9 2.31 9 4.62 9 7 C6.75 7.3125 6.75 7.3125 4 7 C0 2.89189189 0 2.89189189 0 0 Z " fill="#208BB9" transform="translate(670,153)"/>
<path d="M0 0 C6.05537521 0.30276876 9.51483458 3.27754038 14 7 C12.29296875 7.67578125 12.29296875 7.67578125 10 8 C7.67578125 6.85546875 7.67578125 6.85546875 5.3125 5.1875 C4.52488281 4.64480469 3.73726562 4.10210937 2.92578125 3.54296875 C1 2 1 2 0 0 Z " fill="#124F68" transform="translate(675,160)"/>
<path d="M0 0 C0.33 0 0.66 0 1 0 C1 2.31 1 4.62 1 7 C-2.13498292 8.85776765 -4.37471432 9.20140476 -8 9 C-8 7.35 -8 5.7 -8 4 C-7.34 4 -6.68 4 -6 4 C-6 4.66 -6 5.32 -6 6 C-5.01 6 -4.02 6 -3 6 C-3 5.34 -3 4.68 -3 4 C-2.01 4 -1.02 4 0 4 C0 2.68 0 1.36 0 0 Z " fill="#1F87B4" transform="translate(730,149)"/>
<path d="M0 0 C0.33 0.99 0.66 1.98 1 3 C-1.14380612 6.62472482 -3.99532675 10.26611191 -8.02734375 11.7421875 C-9.9375 12 -9.9375 12 -13 12 C-10.64296297 8.46444445 -8.74222272 7.87111136 -5 6 C-2.82993104 4.06453309 -1.29732144 2.59464289 0 0 Z " fill="#175F7E" transform="translate(714,138)"/>
<path d="M0 0 C-2.95183101 2.95183101 -5.95511947 3.08663988 -10 4 C-10 4.66 -10 5.32 -10 6 C-10.99 6 -11.98 6 -13 6 C-10.7550766 -0.7347702 -6.22920273 -0.31146014 0 0 Z " fill="#1C789F" transform="translate(721,161)"/>
<path d="M0 0 C0 2.31 0 4.62 0 7 C-1.65 7 -3.3 7 -5 7 C-5 4 -5 4 -3.0625 1.8125 C-1 0 -1 0 0 0 Z " fill="#051217" transform="translate(722,154)"/>
<path d="M0 0 C0.99 0 1.98 0 3 0 C3.6875 3.25 3.6875 3.25 4 7 C3.01 8.32 2.02 9.64 1 11 C0.67 7.37 0.34 3.74 0 0 Z " fill="#1A6D91" transform="translate(709,130)"/>
<path d="M0 0 C2.475 0.495 2.475 0.495 5 1 C5 2.32 5 3.64 5 5 C3.35 5 1.7 5 0 5 C0 3.35 0 1.7 0 0 Z " fill="#28ABE2" transform="translate(698,133)"/>
<path d="M0 0 C5.75 1.875 5.75 1.875 8 3 C8 3.66 8 4.32 8 5 C3.48279689 5.36625971 3.48279689 5.36625971 1.1875 3.625 C0 2 0 2 0 0 Z " fill="#196F93" transform="translate(671,155)"/>
<path d="M0 0 C0.99 0 1.98 0 3 0 C2 3 2 3 -0.375 4.25 C-3 5 -3 5 -6 4 C-5.34 3.34 -4.68 2.68 -4 2 C-2.68 2 -1.36 2 0 2 C0 1.34 0 0.68 0 0 Z " fill="#114A62" transform="translate(718,163)"/>
<path d="M0 0 C0 3 0 3 0 3 Z M-4 3 C-3.01 3.33 -2.02 3.66 -1 4 C-3 6 -3 6 -5.1640625 6.1953125 C-6.38222656 6.16050781 -6.38222656 6.16050781 -7.625 6.125 C-8.44226563 6.10695312 -9.25953125 6.08890625 -10.1015625 6.0703125 C-10.72804688 6.04710937 -11.35453125 6.02390625 -12 6 C-12 5.67 -12 5.34 -12 5 C-10.865625 4.855625 -9.73125 4.71125 -8.5625 4.5625 C-5.19222799 4.38828522 -5.19222799 4.38828522 -4 3 Z " fill="#1A6C8F" transform="translate(709,141)"/>
</svg>
